# xmcd
#
# Track frame offsets: 
#        150
#        9905
#        22318
#        33769
#        44065
#        57293
#        68650
#        80278
#        91244
#        102505
#        111936
#        124111
#        135234
#        145809
#        160654
#        173527
#        185333
#        197316
#
# Disc length: 2804 seconds
#
# Revision: 0
# Processed by: cddbd v1.5.2PL0 Copyright (c) Steve Scherf et al.
# Submitted via: ExactAudioCopyFreeDBPlugin 1.0
#
DISCID=e10af212
DTITLE=Various Artist - Golden Age of Country ''Hard to Find Hits''
DYEAR=1900
DGENRE=Country
TTITLE0=I don't Believe You've Met My Baby - The Louvin Brothers
TTITLE1=I Love You Because - Leon Payne
TTITLE2=Have I Told You Lately - Tex Ritter
TTITLE3=Wake Up Irene - Hank Thompson
TTITLE4=The Love Song of the Waterfall - Slim Whitman
TTITLE5=I Miss You Already - Faron Young
TTITLE6=Bouquet of Roses - Eddy Arnold
TTITLE7=I'm Thinking Tonight of My Blue Eyes - Gene Autry
TTITLE8=Let Me Be the One - Hank Locklin
TTITLE9=Don't Let the Stars Get in Your Eyes - Ray Price
TTITLE10=Mexican Joe - Jim Reeves
TTITLE11=Let Me Go Lover - Hank Snow
TTITLE12=Treasure of Love - George Jones
TTITLE13=Kentucky Waltz - Bill Monroe
TTITLE14=Love, Love, Love - Webb Pierce
TTITLE15=Walking the Floor Over You - Ernest Tubb
TTITLE16=Take These Chains from My Heart - Hank Williams
TTITLE17=Faded Love - Bob Willis and The Texas Playboys
EXTD=
EXTT0=
EXTT1=
EXTT2=
EXTT3=
EXTT4=
EXTT5=
EXTT6=
EXTT7=
EXTT8=
EXTT9=
EXTT10=
EXTT11=
EXTT12=
EXTT13=
EXTT14=
EXTT15=
EXTT16=
EXTT17=
PLAYORDER=
